<?xml version="1.0" encoding="UTF-8" standalone="no" ?>
<!DOCTYPE svg PUBLIC "-//W3C//DTD SVG 1.1//EN" "http://www.w3.org/Graphics/SVG/1.1/DTD/svg11.dtd">
<svg xmlns="http://www.w3.org/2000/svg" xmlns:xlink="http://www.w3.org/1999/xlink" version="1.1" width="500" height="500" viewBox="0 0 500 500" xml:space="preserve">
<desc>Created with Fabric.js 4.6.0</desc>
<defs>
</defs>
<g transform="matrix(0.62 1.47 -1.64 0.7 174.98 176.36)" id="tNTdIa0hxpw0gTDDRPpOC"  >
<path style="stroke: rgb(199,28,59); stroke-width: 0; stroke-dasharray: none; stroke-linecap: butt; stroke-dashoffset: 0; stroke-linejoin: miter; stroke-miterlimit: 4; fill: rgb(242,179,111); fill-rule: nonzero; opacity: 1;" vector-effect="non-scaling-stroke"  transform=" translate(0, 0)" d="M 0 -66.75393 C 36.84817 -66.75393 66.75393 -36.848169999999996 66.75393 0 C 66.75393 36.84817 36.848169999999996 66.75393 0 66.75393 C -36.84817 66.75393 -66.75393 36.848169999999996 -66.75393 0 C -66.75393 -36.84817 -36.848169999999996 -66.75393 0 -66.75393 z" stroke-linecap="round" />
</g>
<g transform="matrix(1.18 1.18 -1.38 1.38 98.15 212.84)" id="CoJasmtIKuI4gfMSjFrnE"  >
<path style="stroke: rgb(23,255,215); stroke-width: 0; stroke-dasharray: none; stroke-linecap: butt; stroke-dashoffset: 0; stroke-linejoin: miter; stroke-miterlimit: 4; fill: rgb(243,179,111); fill-rule: nonzero; opacity: 1;" vector-effect="non-scaling-stroke"  transform=" translate(0, 0)" d="M 0 -43.63002 C 24.08377 -43.63002 43.63002 -24.08377 43.63002 0 C 43.63002 24.08377 24.08377 43.63002 0 43.63002 C -24.08377 43.63002 -43.63002 24.08377 -43.63002 0 C -43.63002 -24.08377 -24.08377 -43.63002 0 -43.63002 z" stroke-linecap="round" />
</g>
<g transform="matrix(0.31 0.12 -0.12 0.31 155.63 184.98)" id="AHUQx48-a-kKyLnYzToJ5"  >
<path style="stroke: rgb(122,143,0); stroke-width: 0; stroke-dasharray: none; stroke-linecap: butt; stroke-dashoffset: 0; stroke-linejoin: miter; stroke-miterlimit: 4; fill: rgb(0,0,0); fill-rule: nonzero; opacity: 1;" vector-effect="non-scaling-stroke"  transform=" translate(0, 0)" d="M 0 -43.63002 C 24.08377 -43.63002 43.63002 -24.08377 43.63002 0 C 43.63002 24.08377 24.08377 43.63002 0 43.63002 C -24.08377 43.63002 -43.63002 24.08377 -43.63002 0 C -43.63002 -24.08377 -24.08377 -43.63002 0 -43.63002 z" stroke-linecap="round" />
</g>
<g transform="matrix(2.28 -0.53 0.68 2.95 243.58 315.62)" id="RdiPzyvII5e_9F4RFOXVf"  >
<path style="stroke: rgb(65,247,94); stroke-width: 0; stroke-dasharray: none; stroke-linecap: butt; stroke-dashoffset: 0; stroke-linejoin: miter; stroke-miterlimit: 4; fill: rgb(243,179,111); fill-rule: nonzero; opacity: 1;" vector-effect="non-scaling-stroke"  transform=" translate(0, 0)" d="M 0 -43.63002 C 24.08377 -43.63002 43.63002 -24.08377 43.63002 0 C 43.63002 24.08377 24.08377 43.63002 0 43.63002 C -24.08377 43.63002 -43.63002 24.08377 -43.63002 0 C -43.63002 -24.08377 -24.08377 -43.63002 0 -43.63002 z" stroke-linecap="round" />
</g>
<g transform="matrix(1.31 0.5 -0.5 1.31 214.71 70.28)" id="iZf2oolIxtLMdkUU5SN2U"  >
<path style="stroke: rgb(0,0,0); stroke-width: 0; stroke-dasharray: none; stroke-linecap: butt; stroke-dashoffset: 0; stroke-linejoin: miter; stroke-miterlimit: 4; fill: rgb(243,179,111); fill-rule: nonzero; opacity: 1;" vector-effect="non-scaling-stroke"  transform=" translate(0, 0)" d="M -11.61283 13.33216 C 2.9880899999999997 -6.778550000000001 -1.7691600000000012 -11.721269999999999 2.5423299999999998 -14.95526 C 11.88731 -21.9648 9.13237 0.3342699999999983 9.13237 0.3342699999999983 L 9.13237 10.54563 L 9.13237 10.54563 C 9.13237 10.54807 9.13287 10.550479999999999 9.13383 10.552719999999999 L 11.612829999999999 16.31871" stroke-linecap="round" />
</g>
<g transform="matrix(1.37 1.11 -0.98 1.21 384.8 324.35)" id="VbTIlFvHAuoTGQXX6V0En"  >
<path style="stroke: rgb(0,0,0); stroke-width: 0; stroke-dasharray: none; stroke-linecap: butt; stroke-dashoffset: 0; stroke-linejoin: miter; stroke-miterlimit: 4; fill: rgb(242,178,110); fill-rule: nonzero; opacity: 1;" vector-effect="non-scaling-stroke"  transform=" translate(0, 0)" d="M -35.92259 44.66601 L -46.52333 13.16666 C -55.37777 -13.14369 -47.896860000000004 -42.95044 -28.169710000000002 -59.961000000000006 L -27.893400000000003 -60.19926 L -9.990460000000002 -70.59634 L -9.990460000000002 -70.59634 C -1.1936000000000018 -75.70509 9.32782 -75.08802 17.617119999999996 -68.97719 L 20.281779999999998 -67.01281999999999 L 36.33883 -58.30010999999999 L 36.33883 -58.30010999999999 C 44.812110000000004 -53.70242999999999 50.20879 -43.96736999999999 50.20879 -33.280129999999986 L 50.20879 -31.043439999999986 L 50.20879 -31.043439999999986 C 50.20879 -27.102469999999986 48.49627 -23.416769999999985 45.63487 -21.199419999999986 C 42.773469999999996 -18.982069999999986 39.13388 -18.520319999999984 35.914 -19.966149999999985 L 10.792740000000002 -31.246399999999987 L 7.925090000000003 -32.33412999999999 L 7.925090000000003 -32.33412999999999 C 3.2241900000000028 -34.117229999999985 -1.9182599999999965 -33.57092999999999 -6.248319999999998 -30.828439999999986 C -10.578379999999997 -28.085949999999986 -13.698089999999997 -23.399309999999986 -14.846729999999997 -17.91133999999999 L -14.846729999999997 -17.91133999999999 L -14.846729999999997 -17.91133999999999 C -16.207879999999996 -11.408079999999988 -15.666099999999997 -4.576569999999988 -13.303829999999998 1.5438700000000125 L -7.1563399999999975 17.47145000000001 L -7.1563399999999975 17.47145000000001 C -3.0978299999999974 27.986680000000014 -2.3090299999999973 39.76313000000001 -4.920099999999998 50.85752000000001 L -10.375139999999998 74.03585000000001" stroke-linecap="round" />
</g>
</svg>