<?xml version="1.0" encoding="UTF-8" standalone="no" ?>
<!DOCTYPE svg PUBLIC "-//W3C//DTD SVG 1.1//EN" "http://www.w3.org/Graphics/SVG/1.1/DTD/svg11.dtd">
<svg xmlns="http://www.w3.org/2000/svg" xmlns:xlink="http://www.w3.org/1999/xlink" version="1.1" width="500" height="500" viewBox="0 0 500 500" xml:space="preserve">
<desc>Created with Fabric.js 4.6.0</desc>
<defs>
</defs>
<g transform="matrix(0.62 1.47 -1.64 0.7 174.98 176.36)" id="tNTdIa0hxpw0gTDDRPpOC"  >
<path style="stroke: rgb(199,28,59); stroke-width: 0; stroke-dasharray: none; stroke-linecap: butt; stroke-dashoffset: 0; stroke-linejoin: miter; stroke-miterlimit: 4; fill: rgb(242,179,111); fill-rule: nonzero; opacity: 1;" vector-effect="non-scaling-stroke"  transform=" translate(0, 0)" d="M 0 -66.75393 C 36.84817 -66.75393 66.75393 -36.848169999999996 66.75393 0 C 66.75393 36.84817 36.848169999999996 66.75393 0 66.75393 C -36.84817 66.75393 -66.75393 36.848169999999996 -66.75393 0 C -66.75393 -36.84817 -36.848169999999996 -66.75393 0 -66.75393 z" stroke-linecap="round" />
</g>
<g transform="matrix(1.18 1.18 -1.38 1.38 98.15 212.84)" id="CoJasmtIKuI4gfMSjFrnE"  >
<path style="stroke: rgb(23,255,215); stroke-width: 0; stroke-dasharray: none; stroke-linecap: butt; stroke-dashoffset: 0; stroke-linejoin: miter; stroke-miterlimit: 4; fill: rgb(243,179,111); fill-rule: nonzero; opacity: 1;" vector-effect="non-scaling-stroke"  transform=" translate(0, 0)" d="M 0 -43.63002 C 24.08377 -43.63002 43.63002 -24.08377 43.63002 0 C 43.63002 24.08377 24.08377 43.63002 0 43.63002 C -24.08377 43.63002 -43.63002 24.08377 -43.63002 0 C -43.63002 -24.08377 -24.08377 -43.63002 0 -43.63002 z" stroke-linecap="round" />
</g>
<g transform="matrix(0.31 0.12 -0.12 0.31 155.63 184.98)" id="AHUQx48-a-kKyLnYzToJ5"  >
<path style="stroke: rgb(122,143,0); stroke-width: 0; stroke-dasharray: none; stroke-linecap: butt; stroke-dashoffset: 0; stroke-linejoin: miter; stroke-miterlimit: 4; fill: rgb(0,0,0); fill-rule: nonzero; opacity: 1;" vector-effect="non-scaling-stroke"  transform=" translate(0, 0)" d="M 0 -43.63002 C 24.08377 -43.63002 43.63002 -24.08377 43.63002 0 C 43.63002 24.08377 24.08377 43.63002 0 43.63002 C -24.08377 43.63002 -43.63002 24.08377 -43.63002 0 C -43.63002 -24.08377 -24.08377 -43.63002 0 -43.63002 z" stroke-linecap="round" />
</g>
<g transform="matrix(2.28 -0.53 0.68 2.95 243.58 315.62)" id="RdiPzyvII5e_9F4RFOXVf"  >
<path style="stroke: rgb(65,247,94); stroke-width: 0; stroke-dasharray: none; stroke-linecap: butt; stroke-dashoffset: 0; stroke-linejoin: miter; stroke-miterlimit: 4; fill: rgb(243,179,111); fill-rule: nonzero; opacity: 1;" vector-effect="non-scaling-stroke"  transform=" translate(0, 0)" d="M 0 -43.63002 C 24.08377 -43.63002 43.63002 -24.08377 43.63002 0 C 43.63002 24.08377 24.08377 43.63002 0 43.63002 C -24.08377 43.63002 -43.63002 24.08377 -43.63002 0 C -43.63002 -24.08377 -24.08377 -43.63002 0 -43.63002 z" stroke-linecap="round" />
</g>
<g transform="matrix(1.31 0.5 -0.5 1.31 214.71 70.28)" id="iZf2oolIxtLMdkUU5SN2U"  >
<path style="stroke: rgb(0,0,0); stroke-width: 0; stroke-dasharray: none; stroke-linecap: butt; stroke-dashoffset: 0; stroke-linejoin: miter; stroke-miterlimit: 4; fill: rgb(243,179,111); fill-rule: nonzero; opacity: 1;" vector-effect="non-scaling-stroke"  transform=" translate(0, 0)" d="M -11.61283 13.33216 C 2.9880899999999997 -6.778550000000001 -1.7691600000000012 -11.721269999999999 2.5423299999999998 -14.95526 C 11.88731 -21.9648 9.13237 0.3342699999999983 9.13237 0.3342699999999983 L 9.13237 10.54563 L 9.13237 10.54563 C 9.13237 10.54807 9.13287 10.550479999999999 9.13383 10.552719999999999 L 11.612829999999999 16.31871" stroke-linecap="round" />
</g>
<g transform="matrix(1.27 0.59 -0.59 1.27 396.45 217.06)" id="VbTIlFvHAuoTGQXX6V0En"  >
<path style="stroke: rgb(0,0,0); stroke-width: 0; stroke-dasharray: none; stroke-linecap: butt; stroke-dashoffset: 0; stroke-linejoin: miter; stroke-miterlimit: 4; fill: rgb(242,178,110); fill-rule: nonzero; opacity: 1;" vector-effect="non-scaling-stroke"  transform=" translate(0, 0)" d="M -35.62069 44.12016 L -47.07533 10.083529999999996 C -55.597030000000004 -15.238090000000003 -47.94033 -43.19848 -27.70675 -60.64573 L -27.5915 -60.74511 L -12.72674 -69.37778 L -12.72674 -69.37778 C -2.2522 -75.46084 10.833860000000001 -74.7462 20.58368 -67.55868 L 20.58368 -67.55868 L 35.7783 -59.313939999999995 L 35.7783 -59.313939999999995 C 44.856880000000004 -54.38782 50.510690000000004 -44.887499999999996 50.510690000000004 -34.55855 L 50.510690000000004 -31.860849999999996 L 50.510690000000004 -31.860849999999996 C 50.510690000000004 -27.960729999999995 48.53372 -24.326489999999996 45.25945 -22.207519999999995 C 41.98518 -20.088549999999994 37.86 -19.773759999999996 34.30211 -21.371359999999996 L 11.094629999999999 -31.792259999999995 L 11.094629999999999 -31.792259999999995 L 11.094629999999999 -31.792259999999995 C 5.803839999999998 -33.79911 -0.1002300000000016 -33.38983999999999 -5.063510000000001 -30.672169999999994 C -10.026790000000002 -27.954499999999996 -13.552010000000001 -23.200719999999993 -14.711250000000001 -17.662119999999994 L -14.711250000000001 -17.662119999999994 L -14.711250000000001 -17.662119999999994 C -15.971870000000001 -11.639179999999994 -15.463700000000001 -5.380179999999994 -13.247990000000001 0.360510000000005 L -6.2749000000000015 18.427140000000005 L -6.2749000000000015 18.427140000000005 C -2.5676100000000015 28.032400000000003 -1.8461000000000016 38.533060000000006 -4.204800000000001 48.55512 L -10.073240000000002 73.48999" stroke-linecap="round" />
</g>
</svg>